<svg width="12" height="7" viewBox="0 0 12 7" fill="none" xmlns="http://www.w3.org/2000/svg">
<path fill-rule="evenodd" clip-rule="evenodd" d="M4.71334 1.33302C5.42194 0.624426 6.57852 0.624426 7.28711 1.33302L7.02936 1.59078L7.28711 1.33302L11.6338 5.67969C11.829 5.87496 11.829 6.19154 11.6338 6.3868C11.4385 6.58206 11.1219 6.58206 10.9267 6.3868L6.58001 2.04013L6.93356 1.68657L6.58001 2.04013C6.26194 1.72206 5.73852 1.72206 5.42045 2.04013L5.07761 1.69729L5.42045 2.04013L1.07377 6.3868C0.878506 6.58206 0.561923 6.58206 0.366661 6.3868C0.171399 6.19154 0.171399 5.87496 0.366662 5.67969L4.71334 1.33302Z" fill="#292D32"/>
</svg>
