<svg width="16" height="13" viewBox="0 0 16 13" fill="none" xmlns="http://www.w3.org/2000/svg">
<path fill-rule="evenodd" clip-rule="evenodd" d="M5.10453 0.500986C4.66122 0.596561 4.2471 0.946943 4.0937 1.35625L4.04931 1.47468L2.19245 1.47503L0.335593 1.47537L0.253793 1.5141C-0.078184 1.67131 -0.086233 2.12684 0.240002 2.29347L0.319233 2.33394L2.18448 2.33836L4.04974 2.34279L4.0891 2.4447C4.23046 2.81074 4.55344 3.12704 4.91683 3.25534C5.09237 3.31731 5.22217 3.33959 5.40919 3.33984C5.87819 3.34046 6.31433 3.11127 6.57613 2.72658C6.64844 2.62032 6.75689 2.40038 6.75689 2.35997C6.75689 2.34752 8.05425 2.34119 11.2191 2.33818L15.6813 2.33394L15.7605 2.29347C16.0898 2.12529 16.0768 1.66199 15.7385 1.50906C15.6651 1.47584 15.6547 1.47576 11.2143 1.4754L6.76368 1.47504L6.74473 1.40551C6.71854 1.30935 6.58519 1.08432 6.48695 0.970501C6.3173 0.773952 6.08367 0.617142 5.83749 0.534606C5.71778 0.494458 5.67255 0.488405 5.45627 0.483563C5.28817 0.4798 5.17738 0.48528 5.10453 0.500986ZM5.57897 1.36386C5.61046 1.37309 5.67063 1.40227 5.71268 1.42873C5.93377 1.56785 6.02975 1.89446 5.91944 2.13231C5.80218 2.38513 5.53925 2.52719 5.30134 2.46623C5.16294 2.43078 5.08941 2.38942 5.00825 2.30137C4.89916 2.18302 4.85579 2.07243 4.85506 1.91061C4.85427 1.74158 4.90571 1.61446 5.01985 1.50321C5.1792 1.34794 5.36577 1.30143 5.57897 1.36386ZM11.4133 5.08468C11.0042 5.1724 10.6656 5.41733 10.4552 5.77772C10.421 5.83621 10.3833 5.91163 10.3713 5.94531L10.3496 6.00655L5.3162 6.01075L0.282815 6.01494L0.201261 6.0706C0.156402 6.10121 0.0953957 6.16187 0.0656859 6.2054C0.0195835 6.27297 0.0105363 6.30245 0.00382871 6.40699C-0.003157 6.51574 0.000883847 6.53949 0.0398533 6.61915C0.0860212 6.71353 0.16715 6.78949 0.272803 6.83726C0.33183 6.86396 0.633852 6.86615 5.32246 6.87384L10.3093 6.88202L10.3619 7.02172C10.4504 7.25719 10.6056 7.46625 10.8131 7.62995C11.1952 7.9313 11.6909 8.01436 12.1529 7.85444C12.4538 7.75028 12.6861 7.56973 12.8741 7.29388C12.9373 7.20109 13.0307 7.00274 13.0468 6.92701L13.0581 6.87384H14.3157C15.159 6.87384 15.6006 6.86798 15.6562 6.85607C15.7663 6.83245 15.8827 6.74993 15.943 6.65272C15.9877 6.58067 15.9921 6.56091 15.9921 6.43147C15.9921 6.29668 15.9892 6.28509 15.9364 6.20779C15.9058 6.16293 15.8441 6.10121 15.7993 6.0706L15.7177 6.01494L14.3731 6.01049L13.0285 6.00602L12.9915 5.91673C12.8828 5.65453 12.6413 5.3858 12.3846 5.24157C12.1031 5.08334 11.7132 5.02035 11.4133 5.08468ZM11.9158 5.97888C12.1421 6.08251 12.2873 6.35367 12.2406 6.58582C12.2007 6.78466 12.0847 6.93807 11.9135 7.0183C11.8346 7.05529 11.799 7.06183 11.6812 7.06103C11.5559 7.06018 11.5321 7.0547 11.4396 7.00542C11.3169 6.93998 11.2344 6.85298 11.1771 6.72856C11.1421 6.65254 11.1347 6.61255 11.1347 6.49756C11.1347 6.33674 11.1774 6.22111 11.2777 6.11012C11.3424 6.03852 11.4788 5.95773 11.5667 5.93901C11.6684 5.91734 11.8189 5.93453 11.9158 5.97888ZM4.80089 9.69497C4.47991 9.77797 4.18469 9.97735 3.99951 10.2362C3.9282 10.3359 3.79573 10.5927 3.79573 10.6313C3.79573 10.6482 3.45721 10.6531 2.05748 10.6567C0.131338 10.6617 0.27174 10.6534 0.139584 10.7694C0.00368153 10.8888 -0.0391328 11.1002 0.0389207 11.2665C0.0886224 11.3724 0.151314 11.4338 0.258357 11.4816L0.344705 11.5201H2.06762H3.79054L3.81134 11.5896C3.85605 11.7391 3.97927 11.9355 4.12257 12.0856C4.33168 12.3047 4.60509 12.4515 4.8997 12.5028C5.07683 12.5337 5.40925 12.5137 5.57079 12.4624C5.80785 12.3873 6.05478 12.222 6.22519 12.0246C6.32476 11.9093 6.45724 11.6842 6.48132 11.5896L6.49901 11.5201H11.0774H15.6558L15.7421 11.4816C15.9056 11.4087 16 11.264 16 11.0865C16 10.916 15.9159 10.7832 15.7549 10.6995L15.6813 10.6612L11.0907 10.6569L6.50022 10.6527L6.48075 10.5877C6.40886 10.3478 6.17449 10.0509 5.92614 9.88529C5.60729 9.67261 5.17208 9.599 4.80089 9.69497ZM5.2387 10.5241C5.42955 10.5647 5.56595 10.6723 5.65074 10.8493C5.74455 11.0452 5.71476 11.2726 5.57054 11.4617C5.50602 11.5463 5.3855 11.616 5.25764 11.6426C5.16078 11.6628 5.13 11.6629 5.03577 11.6432C4.91713 11.6184 4.79539 11.5473 4.72215 11.4602C4.58566 11.2977 4.548 11.0464 4.63276 10.8637C4.7122 10.6925 4.8446 10.58 5.02312 10.532C5.13507 10.5019 5.13399 10.5019 5.2387 10.5241Z" fill="black"/>
</svg>
