<svg width="530" height="528" viewBox="0 0 530 528" fill="none" xmlns="http://www.w3.org/2000/svg">
<g clip-path="url(#clip0_233_48)">
<path d="M436.488 249H371.591V176.375L279.506 52.5905V0H344.404V44.7198L404.478 128.793L464.114 44.7198V0H529.012V52.9483L436.488 176.375V249Z" fill="white"/>
<path d="M488.427 528H320.091L279.506 496.517V310.125L320.091 279H488.427L529.012 310.125V496.517L488.427 528ZM347.763 326.582V480.06H461.216V326.582H347.763Z" fill="white"/>
<path d="M0 249V0H65.3573V100.53H184.149V0H249.506V249H184.149V146.323H65.3573V249H0Z" fill="white"/>
<path d="M72.4056 528H0V279H204.497L247.549 310.125V398.849L214.281 423.534L249.506 449.293V528H177.1V458.237L159.488 445.716H72.4056V528ZM175.633 389.905V322.289H72.4056V402.427H158.51L175.633 389.905Z" fill="white"/>
</g>
<defs>
<clipPath id="clip0_233_48">
<rect width="530" height="528" fill="white"/>
</clipPath>
</defs>
</svg>
