<svg width="1440" height="132" viewBox="0 0 1440 132" fill="none" xmlns="http://www.w3.org/2000/svg">
<path fill-rule="evenodd" clip-rule="evenodd" d="M3.01003e-05 30.3269C0.0498571 30.3229 0.0797679 30.3129 0.13956 30.3089C1.28558 30.6969 2.46149 31.0859 3.61747 31.4789C5.85969 32.3152 9.96548 32.7601 12.7558 33.4862C13.5431 33.6398 14.3701 33.7946 15.1574 33.9541L15.2471 34.0498L15.3767 34.1478C19.044 34.823 22.7111 35.504 26.3784 36.1792C26.9564 36.2085 27.5344 36.2435 28.1323 36.2739C30.813 36.6491 33.1948 36.7002 35.0085 36.2314C36.8122 36.2013 38.5362 36.1332 39.463 35.7844C39.7121 35.7714 39.9612 35.7526 40.2004 35.7338C40.041 34.8496 41.6254 34.8048 44.914 35.4066C47.4851 35.8754 49.1295 36.4448 50.4947 37.0723C51.4514 37.5155 52.4877 37.9622 54.5207 38.2701C54.8196 38.4671 55.1486 38.6595 55.4475 38.8508C56.4839 38.9972 57.5303 39.1378 58.5667 39.2843C58.7361 39.291 58.8956 39.2977 59.065 39.2986C59.1746 39.3781 59.3639 39.4495 59.7127 39.5102C64.9147 39.8439 70.1465 40.1788 75.3484 40.5126C78.9559 41.0528 83.7691 41.0187 86.5395 41.9515C87.9048 42.1979 89.1904 42.4641 90.6154 42.6839C92.6185 42.9907 94.5617 42.972 94.3922 42.4457C94.0634 41.3469 97.2424 41.5171 100.69 41.7042C106.68 42.411 111.931 43.4628 118.509 43.9333C122.086 44.1896 126.112 43.9383 129.291 44.732C131.234 45.0019 133.198 45.2729 135.141 45.5371C135.25 45.6051 135.34 45.6719 135.45 45.7341C137.931 45.8821 139.605 46.3718 141.847 46.6251C142.067 46.611 142.286 46.5968 142.505 46.5769C142.675 46.5259 142.784 46.4784 142.834 46.4345C146.392 46.1758 149.9 45.8629 154.244 46.1619C155.231 46.2137 156.218 46.2598 157.204 46.3116C157.533 46.3423 157.972 46.3718 158.131 46.3381C161.17 46.3468 163.144 45.7865 166.293 45.8689C168.345 46.2184 170.618 46.3516 172.94 46.464C177.862 46.3709 183.234 46.8269 188.047 46.5272C188.894 46.4753 189.771 46.5284 190.648 46.5989C190.897 46.7013 191.246 46.8024 191.605 46.8978C196.089 47.1563 200.603 47.5025 204.879 47.192L204.899 47.1904C206.722 47.058 208.636 46.9197 210.738 47.3044L214.017 48.114C215.332 48.035 216.867 48.0168 217.933 47.8699C221.302 47.4013 223.793 47.6532 225.816 48.5153C226.065 49.0276 228.796 49.1626 229.732 49.5759C230.111 49.6435 230.49 49.7169 230.878 49.7845C231.646 49.9428 232.383 50.1346 233.42 50.0732C236.349 50.8395 240.644 51.0093 244.292 51.4583C245.189 51.6395 246.096 51.8208 247.022 52.0031C246.424 52.2325 246.145 52.4869 246.394 52.7856C246.394 53.0512 247.242 53.1955 248.228 53.3224C250.53 53.6588 253.43 53.4426 255.533 53.9501C255.971 54.0142 256.38 54.0714 256.818 54.1355L257.974 54.3903C258.134 54.3739 258.323 54.3644 258.492 54.3653C258.871 55.1084 262.459 55.33 264.372 55.8181C266.236 56.1136 268.099 56.409 269.933 56.7033C272.673 57.3867 276.091 57.8556 279.509 58.3129C284.054 58.4697 288.02 58.0546 292.973 58.3667C295.195 58.5035 298.583 57.9726 300.008 57.361C301.922 56.533 305.4 56.4383 309.366 57.1663C311.15 57.493 312.983 57.6199 314.976 57.7304C320.019 57.8381 324.673 57.7569 327.951 56.9963C329.735 56.8727 331.041 56.6204 332.167 56.3257C334.249 56.4626 336.322 56.6054 338.435 56.7435L338.375 56.7412C339.77 57.035 341.305 57.2419 342.73 56.9768C343.856 56.7687 345.361 56.8302 346.696 56.7811C346.646 56.8308 346.836 56.8733 347.304 56.9154L347.434 56.8921C349.158 56.8933 351.051 56.9993 352.088 56.6377C353.652 56.1011 356.582 56.2092 359.263 56.2149C360.598 56.4256 362.133 56.494 363.667 56.5797L365.122 56.9565C366.208 57.059 367.335 57.1337 368.481 57.1922C368.57 57.2129 368.65 57.2278 368.7 57.2474C369.278 57.4267 369.965 57.3739 370.643 57.2806C372.696 57.3356 374.858 57.3374 377.13 57.2744C381.316 57.3012 384.306 58.468 388.68 58.2775C395.437 57.3761 383.18 54.254 393.195 54.369C403.08 54.4783 396.424 57.2605 402.911 58.4377C403.818 58.6016 404.635 58.7795 405.482 58.9527C407.674 56.3346 417.5 55.876 428.313 55.7059C428.582 55.5092 428.801 55.3046 429.02 55.0999C441.397 57.043 429.21 59.5934 438.109 61.6196L438.218 61.5836C437.86 59.8025 446.346 59.7798 451.081 59.0092C452.805 59.3221 454.585 59.6084 456.719 59.7188C459.291 60.1703 461.7 60.6671 464.245 61.1232C464.382 61.3771 464.519 61.6309 464.656 61.879C468.213 62.9134 472.592 63.2309 477.546 63.0177C484.196 62.5621 490.82 62.4345 497.388 63.5111C498.236 63.6497 499.085 63.8056 499.933 63.9846C499.96 63.7952 500.07 63.6092 500.262 63.4323C500.179 63.3481 500.234 63.2811 500.179 63.2038L507.268 62.4197L505.516 65.275C508.007 65.423 510.552 65.6367 512.303 65.1368C519.583 65.0937 526.589 64.5487 534.416 65.4806C535.894 66.4704 537.427 67.399 542.435 66.3798C542.791 66.3078 544.133 66.4492 545.009 66.485C549.278 65.9551 554.232 66.3423 558.446 66.8552C562.962 67.3976 565.288 67.2041 567.423 66.5582C568.846 66.9223 569.694 67.4419 572.377 67.4649C573.717 68.3626 576.153 67.4114 577.768 67.8238C579.656 68.4899 581.38 69.1953 585.185 69.4663C586.826 69.7758 588.907 69.9648 590.193 70.3753C590.193 70.4676 590.138 70.552 590.111 70.6432L590.084 70.6479C595.284 71.9169 600.73 72.33 607.408 71.8524C610.883 71.6019 614.852 71.995 616.603 73.0134L616.627 73.0167C617.905 73.201 619.183 73.3851 620.435 73.5625C620.872 73.6035 621.284 73.6376 621.721 73.6613C625.388 74.6829 630.808 75.3719 633.9 76.4913C635.734 77.3456 639.1 77.1022 641.864 77.2786C647.174 77.0107 650.102 77.9963 653.578 78.6868C657.054 79.8334 660.174 80.0706 664.826 79.2909C669.397 78.5193 673.2 77.4163 680.453 77.4529C681.876 77.4591 682.204 77.1319 682.67 76.8796C683.901 76.2256 684.394 75.5241 689.841 76.3991C693.919 77.0507 704.044 75.9347 705.03 74.9647C707.548 75.2754 709.764 74.7425 711.981 75.0582C715.347 75.5306 720.903 75.088 722.272 76.5526C722.518 76.834 727.334 77.562 729.989 76.868L730.095 76.761C730.306 76.5456 730.52 76.3274 730.756 76.1142C732.781 76.3528 733.739 76.1899 733.903 75.7463C741.046 75.4956 748.545 75.5077 754.347 74.492C756.92 74.0372 760.861 75.0758 764.419 75.2558C766.773 75.3751 769.098 75.7415 771.424 75.9924C773.86 76.0631 775.941 76.3617 777.254 76.8022C778.896 77.36 780.566 77.2782 782.426 77.1522C782.7 77.1864 782.974 77.2265 783.22 77.2712C785.109 77.6774 787.134 77.8988 789.433 77.8022C788.092 78.3305 790.582 78.6747 791.896 79.0748L791.973 79.112C793.152 79.6809 794.35 80.2592 797.67 79.8131C799.641 79.553 801.886 79.789 804.047 79.8774C807.304 79.3639 812.586 80.7806 815.323 79.784C821.809 79.5468 825.532 77.9208 834.125 78.7339C834.454 78.3605 835.439 78.141 837.245 78.1052C838.395 78.562 839.544 79.0131 840.693 79.4642C840.091 80.0573 842.91 80.3861 844.032 80.8476C845.291 81.0434 846.551 81.2334 847.809 81.4292C848.195 81.445 848.58 81.4658 848.99 81.488L849.068 81.4922C849.916 81.7347 850.737 81.9761 851.586 82.2186C853.146 82.8192 855.28 83.1028 858.127 82.9651C861 82.6149 860.891 81.1787 867.213 82.0952C871.044 81.9054 874.466 82.2588 877.722 82.8538C878.16 83.0506 878.57 83.2521 879.009 83.449C882.676 84.4649 888.067 84.9277 892.584 85.6664C894.855 86.0364 897.483 86.3054 899.152 86.847C899.097 86.9372 899.042 87.0331 898.987 87.1232C899.343 87.2474 899.726 87.3727 900.082 87.497C907.06 87.4589 915.354 88.277 920.143 86.8447C920.471 86.8466 920.8 86.8543 921.155 86.8688C921.566 86.4353 922.005 86.0087 922.414 85.5751C924.194 85.5843 926 85.5946 927.778 85.6038C931.501 84.2492 932.295 84.2239 939.355 85.3785C941.408 85.7164 943.624 85.7954 945.814 85.9773V86.2428C948.824 86.5968 949.974 86.2916 950.522 85.7713L950.527 85.7715C951.319 85.8039 952.111 85.8362 952.902 85.8744C953.778 85.9159 954.626 85.9622 955.502 86.0037C955.585 85.932 955.694 85.8615 955.831 85.792C960.045 85.1733 962.974 84.4733 962.044 83.0728C961.578 82.3783 964.424 81.7615 968.776 82.7245C970.746 83.1572 974.304 83.1698 975.098 83.9123C979.915 84.5075 985.115 85.0029 987.578 86.2235C987.962 86.4239 988.344 86.6243 988.7 86.8236C989.795 88.0172 994.01 88.6975 998.634 89.1867C1004.46 89.8002 1006.57 91.2487 1012.18 91.8706L1012.39 91.8385C1015.78 91.3052 1018.94 90.8096 1024.33 91.7149C1027.92 92.3175 1029.15 91.5134 1030.9 91.1289C1033.04 90.8929 1035.53 91.52 1037.66 91.2782C1037.66 91.2839 1037.69 91.2908 1037.72 91.3035L1037.63 91.5715L1037.55 91.8394C1038.73 92.0954 1039.47 92.98 1041.38 92.1346C1042.34 92.4451 1044.37 92.3489 1045.35 92.6605V92.926C1045.71 92.9694 1046.06 93.0071 1046.45 93.0401C1048.91 93.4987 1050 93.2259 1050.93 92.8309C1051.84 92.4464 1053.89 92.3225 1055.18 92.7156C1059.04 93.9125 1065.93 94.2925 1069.68 95.4791C1070.48 95.7309 1071.24 96.1433 1072.45 96.1521C1077.1 96.1864 1080.63 97.1562 1084.68 97.2929C1090.62 97.4952 1094.64 98.2658 1098.69 99.1472C1099.54 99.5109 1099.13 100.1 1102.36 100.042C1102.44 100.022 1102.5 100.007 1102.58 99.9872C1109.17 101.769 1116.4 103.364 1126.33 104.197C1127.7 104.31 1128.44 104.606 1128.85 104.906C1129.24 104.927 1129.62 104.96 1129.97 105.004C1131.81 105.979 1133.67 106.956 1135.5 107.926C1138.54 108.54 1142.76 108.759 1145.14 109.636C1146.18 110.019 1148.8 110.028 1149.9 109.565C1152.01 109.628 1152.8 110.11 1154.41 110.309C1157.59 110.699 1160.74 110.914 1161.83 110.018C1164.81 107.542 1172.83 106.155 1183.83 105.479C1187.8 105.237 1191.99 105.408 1194.92 106.422C1194.37 106.504 1194.34 106.618 1194.75 106.762L1194.7 106.777C1196.83 108.516 1199.9 108.924 1206.41 108.341C1207.92 107.854 1209.83 107.586 1213.15 107.687C1215.94 107.772 1218.76 122.124 1220.95 121.769C1221.41 121.788 1221.88 121.819 1222.34 121.844C1228.94 123.516 1235.59 125.185 1242.13 126.867C1245.22 127.663 1251.57 127.558 1254.42 126.636C1257.48 126.853 1260.55 127.065 1263.61 127.283C1263.61 127.646 1264.43 127.871 1266.21 127.932C1267.99 128.385 1270.29 128.56 1272.64 128.708C1277.49 129.114 1282.14 129.414 1284.19 128.216C1285.67 128.352 1287.12 128.492 1288.6 128.616C1290.68 129.041 1293.01 129.119 1295.39 129.13C1301.71 129.521 1308.03 129.612 1314.33 128.899C1335.97 130.102 1357.79 130.11 1379.33 131.96C1386.58 132.175 1390.38 131.523 1389.94 129.975C1389.26 127.609 1395.77 126.461 1403.68 125.52C1403.74 125.505 1403.74 125.493 1403.79 125.478C1406.99 126.735 1411.59 126.917 1415.94 126.217C1421.06 125.393 1427.16 125.562 1433.43 125.662C1435.62 125.48 1437.81 125.292 1440 125.11L1440 0.00793457L3.01003e-05 -6.10352e-05V30.3269ZM1254.58 126.567L1254.53 126.565L1254.69 126.606L1254.58 126.567Z" fill="#141414"/>
</svg>
